<svg xmlns="http://www.w3.org/2000/svg" width="12" height="20" fill="none"><path fill="#fff" d="M11.691 7.867A.833.833 0 0 0 11 7.5H8.5V5.833h1.833A.833.833 0 0 0 11.166 5V1.667a.833.833 0 0 0-.833-.834H7.666a4.833 4.833 0 0 0-4.833 4.834V7.5H1a.833.833 0 0 0-.833.833v3.334A.833.833 0 0 0 1 12.5h1.833v5.833a.833.833 0 0 0 .833.834h4a.833.833 0 0 0 .834-.834V12.5h1.166a.833.833 0 0 0 .775-.525l1.334-3.333a.833.833 0 0 0-.084-.775ZM9.1 10.833H7.667a.833.833 0 0 0-.834.834V17.5H4.5v-5.833a.833.833 0 0 0-.833-.834H1.833V9.167h1.834a.833.833 0 0 0 .833-.834V5.667A3.175 3.175 0 0 1 7.667 2.5H9.5v1.667h-.667a2.083 2.083 0 0 0-1.6.433 1.45 1.45 0 0 0-.4 1.067v2.666a.833.833 0 0 0 .833.834h2.1L9.1 10.833Z"/></svg>