<svg width="18" height="18" viewBox="0 0 18 18" fill="none" xmlns="http://www.w3.org/2000/svg">
<path d="M12.0919 9.59166C12.9089 8.94888 13.5052 8.06743 13.7979 7.06994C14.0906 6.07246 14.0652 5.00855 13.7251 4.02622C13.385 3.04388 12.7471 2.19199 11.9003 1.58904C11.0535 0.986091 10.0398 0.662079 9.00024 0.662079C7.9607 0.662079 6.947 0.986091 6.10018 1.58904C5.25336 2.19199 4.61553 3.04388 4.27542 4.02622C3.93531 5.00855 3.90984 6.07246 4.20254 7.06994C4.49525 8.06743 5.09158 8.94888 5.90858 9.59166C4.50864 10.1525 3.28715 11.0828 2.37432 12.2833C1.46149 13.4837 0.891544 14.9094 0.725241 16.4083C0.713204 16.5178 0.722838 16.6285 0.753596 16.7342C0.784353 16.8399 0.835631 16.9385 0.904501 17.0244C1.04359 17.1979 1.24589 17.309 1.46691 17.3333C1.68792 17.3576 1.90954 17.2932 2.08301 17.1541C2.25648 17.015 2.3676 16.8127 2.39191 16.5917C2.5749 14.9627 3.35165 13.4582 4.57376 12.3657C5.79587 11.2731 7.37766 10.6692 9.01691 10.6692C10.6562 10.6692 12.2379 11.2731 13.4601 12.3657C14.6822 13.4582 15.4589 14.9627 15.6419 16.5917C15.6646 16.7964 15.7623 16.9855 15.9162 17.1225C16.0701 17.2595 16.2692 17.3346 16.4752 17.3333H16.5669C16.7854 17.3082 16.985 17.1977 17.1224 17.026C17.2597 16.8543 17.3237 16.6353 17.3002 16.4167C17.1332 14.9135 16.5601 13.4841 15.6426 12.2818C14.7251 11.0795 13.4977 10.1496 12.0919 9.59166ZM9.00024 8.99999C8.34097 8.99999 7.69651 8.8045 7.14834 8.43822C6.60018 8.07195 6.17294 7.55136 5.92064 6.94227C5.66835 6.33318 5.60234 5.66296 5.73096 5.01636C5.85957 4.36976 6.17704 3.77581 6.64322 3.30964C7.10939 2.84346 7.70334 2.52599 8.34994 2.39737C8.99654 2.26876 9.66677 2.33477 10.2759 2.58706C10.8849 2.83935 11.4055 3.26659 11.7718 3.81476C12.1381 4.36292 12.3336 5.00739 12.3336 5.66666C12.3336 6.55071 11.9824 7.39856 11.3573 8.02368C10.7321 8.6488 9.8843 8.99999 9.00024 8.99999Z" fill="#222222"/>
</svg>
