<svg width="14" height="18" viewBox="0 0 14 18" fill="none" xmlns="http://www.w3.org/2000/svg">
<path d="M11.1668 6.49999V4.83332C11.1668 3.72825 10.7278 2.66845 9.94644 1.88704C9.16504 1.10564 8.10523 0.666656 7.00016 0.666656C5.89509 0.666656 4.83529 1.10564 4.05388 1.88704C3.27248 2.66845 2.8335 3.72825 2.8335 4.83332V6.49999C2.17045 6.49999 1.53457 6.76338 1.06573 7.23222C0.596888 7.70106 0.333496 8.33695 0.333496 8.99999V14.8333C0.333496 15.4964 0.596888 16.1322 1.06573 16.6011C1.53457 17.0699 2.17045 17.3333 2.8335 17.3333H11.1668C11.8299 17.3333 12.4658 17.0699 12.9346 16.6011C13.4034 16.1322 13.6668 15.4964 13.6668 14.8333V8.99999C13.6668 8.33695 13.4034 7.70106 12.9346 7.23222C12.4658 6.76338 11.8299 6.49999 11.1668 6.49999ZM4.50016 4.83332C4.50016 4.17028 4.76355 3.5344 5.2324 3.06556C5.70124 2.59672 6.33712 2.33332 7.00016 2.33332C7.6632 2.33332 8.29909 2.59672 8.76793 3.06556C9.23677 3.5344 9.50016 4.17028 9.50016 4.83332V6.49999H4.50016V4.83332ZM12.0002 14.8333C12.0002 15.0543 11.9124 15.2663 11.7561 15.4226C11.5998 15.5789 11.3878 15.6667 11.1668 15.6667H2.8335C2.61248 15.6667 2.40052 15.5789 2.24424 15.4226C2.08796 15.2663 2.00016 15.0543 2.00016 14.8333V8.99999C2.00016 8.77898 2.08796 8.56702 2.24424 8.41073C2.40052 8.25445 2.61248 8.16666 2.8335 8.16666H11.1668C11.3878 8.16666 11.5998 8.25445 11.7561 8.41073C11.9124 8.56702 12.0002 8.77898 12.0002 8.99999V14.8333Z" fill="#222222"/>
</svg>
