<svg xmlns="http://www.w3.org/2000/svg" width="18" height="18" fill="none"><path fill="#fff" d="M15.2 9.833c-.183 0-.375-.058-.558-.1a7.866 7.866 0 0 1-1.092-.325 1.667 1.667 0 0 0-2.067.834l-.183.375A10.148 10.148 0 0 1 9.083 8.95a10.15 10.15 0 0 1-1.666-2.217l.35-.233A1.667 1.667 0 0 0 8.6 4.433a8.61 8.61 0 0 1-.325-1.091 6.185 6.185 0 0 1-.1-.567A2.5 2.5 0 0 0 5.675.7h-2.5a2.5 2.5 0 0 0-2.5 2.842 15.833 15.833 0 0 0 13.767 13.716h.316a2.5 2.5 0 0 0 2.285-1.481 2.5 2.5 0 0 0 .215-1.027v-2.5A2.5 2.5 0 0 0 15.2 9.833Zm.417 5a.833.833 0 0 1-.603.802.883.883 0 0 1-.364.032A14.166 14.166 0 0 1 2.392 3.35a.908.908 0 0 1 .208-.683.833.833 0 0 1 .625-.284h2.5a.833.833 0 0 1 .833.659c.034.227.075.452.125.675.097.439.225.87.384 1.291L5.9 5.55a.833.833 0 0 0-.408 1.108 12.075 12.075 0 0 0 5.833 5.834c.203.083.43.083.633 0a.832.832 0 0 0 .475-.434l.517-1.166c.43.154.87.282 1.317.383.222.05.447.092.675.125a.833.833 0 0 1 .658.833l.017 2.6Z"/></svg>